<?xml version="1.0" encoding="UTF-8" standalone="no"?>
<!-- Generator: Adobe Illustrator 13.0.2, SVG Export Plug-In . SVG Version: 6.00 Build 14948)  -->

<svg
   xmlns:dc="http://purl.org/dc/elements/1.1/"
   xmlns:cc="http://creativecommons.org/ns#"
   xmlns:rdf="http://www.w3.org/1999/02/22-rdf-syntax-ns#"
   xmlns:svg="http://www.w3.org/2000/svg"
   xmlns="http://www.w3.org/2000/svg"
   xmlns:sodipodi="http://sodipodi.sourceforge.net/DTD/sodipodi-0.dtd"
   xmlns:inkscape="http://www.inkscape.org/namespaces/inkscape"
   version="1.0"
   id="Layer_1"
   x="0px"
   y="0px"
   width="213.42374"
   height="64.270187"
   viewBox="5.5 -3.5 213.42374 64.270187"
   enable-background="new 5.5 -3.5 64 64"
   xml:space="preserve"
   inkscape:version="0.48.2 r9819"
   sodipodi:docname="white_license.svg"><metadata
   id="metadata13"><rdf:RDF><cc:Work
       rdf:about=""><dc:format>image/svg+xml</dc:format><dc:type
         rdf:resource="http://purl.org/dc/dcmitype/StillImage" /><dc:title></dc:title></cc:Work></rdf:RDF></metadata><defs
   id="defs11" /><sodipodi:namedview
   pagecolor="#ffffff"
   bordercolor="#666666"
   borderopacity="1"
   objecttolerance="10"
   gridtolerance="10"
   guidetolerance="10"
   inkscape:pageopacity="0"
   inkscape:pageshadow="2"
   inkscape:window-width="1307"
   inkscape:window-height="899"
   id="namedview9"
   showgrid="false"
   showguides="true"
   inkscape:guide-bbox="true"
   fit-margin-top="0"
   fit-margin-left="0"
   fit-margin-right="0"
   fit-margin-bottom="0"
   inkscape:zoom="3.6875"
   inkscape:cx="119.43654"
   inkscape:cy="56.562465"
   inkscape:window-x="75"
   inkscape:window-y="59"
   inkscape:window-maximized="0"
   inkscape:current-layer="Layer_1"><sodipodi:guide
     orientation="0,1"
     position="78.915254,64.270186"
     id="guide3016" /></sodipodi:namedview>
<g
   id="g3"
   transform="translate(0,0.27118676)">
	<circle
   cx="37.785"
   cy="28.500999"
   r="28.836"
   id="circle5"
   sodipodi:cx="37.785"
   sodipodi:cy="28.500999"
   sodipodi:rx="28.836"
   sodipodi:ry="28.836"
   style="fill:#000000;fill-opacity:1"
   d="M 66.621,28.500999 C 66.621,44.426683 53.710683,57.337 37.785,57.337 21.859317,57.337 8.9489994,44.426683 8.9489994,28.500999 c 0,-15.925683 12.9103176,-28.83599999 28.8360006,-28.83599999 15.925683,0 28.836,12.91031699 28.836,28.83599999 z" />
	<path
   d="m 37.441,-3.5 c 8.951,0 16.572,3.125 22.857,9.372 3.008,3.009 5.295,6.448 6.857,10.314 1.561,3.867 2.344,7.971 2.344,12.314 0,4.381 -0.773,8.486 -2.314,12.313 -1.543,3.828 -3.82,7.21 -6.828,10.143 -3.123,3.085 -6.666,5.448 -10.629,7.086 -3.961,1.638 -8.057,2.457 -12.285,2.457 -4.228,0 -8.276,-0.808 -12.143,-2.429 C 21.434,56.452 17.967,54.109 14.9,51.043 11.833,47.977 9.5,44.519 7.9,40.671 6.3,36.823 5.5,32.767 5.5,28.5 5.5,24.271 6.309,20.205 7.928,16.3 9.547,12.395 11.9,8.9 14.985,5.814 21.08,-0.394 28.565,-3.5 37.441,-3.5 z m 0.116,5.772 c -7.314,0 -13.467,2.553 -18.458,7.657 -2.515,2.553 -4.448,5.419 -5.8,8.6 -1.354,3.181 -2.029,6.505 -2.029,9.972 0,3.429 0.675,6.734 2.029,9.913 1.353,3.183 3.285,6.021 5.8,8.516 2.514,2.496 5.351,4.399 8.515,5.715 3.161,1.314 6.476,1.971 9.943,1.971 3.428,0 6.75,-0.665 9.973,-1.999 3.219,-1.335 6.121,-3.257 8.713,-5.771 4.99,-4.876 7.484,-10.99 7.484,-18.344 0,-3.543 -0.648,-6.895 -1.943,-10.057 C 60.491,15.283 58.604,12.465 56.13,9.987 50.984,4.844 44.795,2.272 37.557,2.272 z m -0.401,20.915 -4.287,2.229 c -0.458,-0.951 -1.019,-1.619 -1.685,-2 -0.667,-0.38 -1.286,-0.571 -1.858,-0.571 -2.856,0 -4.286,1.885 -4.286,5.657 0,1.714 0.362,3.084 1.085,4.113 0.724,1.029 1.791,1.544 3.201,1.544 1.867,0 3.181,-0.915 3.944,-2.743 l 3.942,2 c -0.838,1.563 -2,2.791 -3.486,3.686 -1.484,0.896 -3.123,1.343 -4.914,1.343 -2.857,0 -5.163,-0.875 -6.915,-2.629 -1.752,-1.752 -2.628,-4.19 -2.628,-7.313 0,-3.048 0.886,-5.466 2.657,-7.257 1.771,-1.79 4.009,-2.686 6.715,-2.686 3.963,-0.002 6.8,1.541 8.515,4.627 z m 18.457,0 -4.229,2.229 c -0.457,-0.951 -1.02,-1.619 -1.686,-2 -0.668,-0.38 -1.307,-0.571 -1.914,-0.571 -2.857,0 -4.287,1.885 -4.287,5.657 0,1.714 0.363,3.084 1.086,4.113 0.723,1.029 1.789,1.544 3.201,1.544 1.865,0 3.18,-0.915 3.941,-2.743 l 4,2 c -0.875,1.563 -2.057,2.791 -3.541,3.686 -1.486,0.896 -3.105,1.343 -4.857,1.343 -2.896,0 -5.209,-0.875 -6.941,-2.629 -1.736,-1.752 -2.602,-4.19 -2.602,-7.313 0,-3.048 0.885,-5.466 2.658,-7.257 1.77,-1.79 4.008,-2.686 6.713,-2.686 3.962,-0.002 6.783,1.541 8.458,4.627 z"
   id="path7"
   inkscape:connector-curvature="0"
   style="fill:#ffffff;fill-opacity:1" />
</g>
<circle
   id="circle5-0"
   r="28.275999"
   cy="28.806"
   cx="37.637001"
   d="m 65.913,28.806 c 0,15.616403 -12.659596,28.275999 -28.275999,28.275999 C 22.020598,57.081999 9.361002,44.422403 9.361002,28.806 9.361002,13.189597 22.020598,0.53000069 37.637001,0.53000069 53.253404,0.53000069 65.913,13.189597 65.913,28.806 z"
   sodipodi:cx="37.637001"
   sodipodi:cy="28.806"
   sodipodi:rx="28.275999"
   sodipodi:ry="28.275999"
   style="fill:#000000;fill-opacity:1"
   transform="translate(74.576271,0)" /><g
   id="g7"
   transform="translate(74.576271,6.728528e-7)"
   style="fill:#c9c9c9;fill-opacity:1"><path
     id="path9"
     d="m 37.443,-3.5 c 8.988,0 16.57,3.085 22.742,9.257 6.208,6.21 9.315,13.791 9.315,22.743 0,8.991 -3.049,16.476 -9.145,22.456 C 53.879,57.319 46.242,60.5 37.443,60.5 28.794,60.5 21.29,57.356 14.929,51.07 8.644,44.784 5.5,37.262 5.5,28.5 5.5,19.739 8.644,12.158 14.929,5.758 21.101,-0.415 28.604,-3.5 37.443,-3.5 z m 0.114,5.772 c -7.276,0 -13.428,2.553 -18.457,7.657 -5.22,5.334 -7.829,11.525 -7.829,18.572 0,7.086 2.59,13.22 7.77,18.398 5.181,5.182 11.352,7.771 18.514,7.771 7.123,0 13.334,-2.607 18.629,-7.828 5.029,-4.838 7.543,-10.952 7.543,-18.343 0,-7.276 -2.553,-13.465 -7.656,-18.571 C 50.967,4.824 44.795,2.272 37.557,2.272 z m 8.572,18.285 V 33.642 H 42.473 V 49.184 H 32.529 V 33.643 H 28.873 V 20.557 c 0,-0.572 0.2,-1.057 0.599,-1.457 0.401,-0.399 0.887,-0.6 1.457,-0.6 h 13.144 c 0.533,0 1.01,0.2 1.428,0.6 0.417,0.4 0.628,0.886 0.628,1.457 z M 33.042,12.329 c 0,-3.008 1.485,-4.514 4.458,-4.514 2.973,0 4.457,1.504 4.457,4.514 0,2.971 -1.486,4.457 -4.457,4.457 -2.971,0 -4.458,-1.486 -4.458,-4.457 z"
     inkscape:connector-curvature="0"
     style="fill:#c9c9c9;fill-opacity:1" /></g><circle
   id="circle5-4"
   r="29.105"
   cy="28.631001"
   cx="36.944"
   d="M 66.049,28.631001 C 66.049,44.705248 53.018248,57.736 36.944,57.736 20.869753,57.736 7.8390007,44.705248 7.8390007,28.631001 c 0,-16.074248 13.0307523,-29.10500002 29.1049993,-29.10500002 16.074248,0 29.105,13.03075202 29.105,29.10500002 z"
   sodipodi:cx="36.944"
   sodipodi:cy="28.631001"
   sodipodi:rx="29.105"
   sodipodi:ry="29.105"
   style="fill:#000000;fill-opacity:1"
   transform="translate(149.42373,8.1e-7)" /><path
   inkscape:connector-curvature="0"
   d="m 186.86673,-3.4999992 c 8.951,0 16.531,3.10500001 22.742,9.315 6.208,6.1720002 9.315,13.7330002 9.315,22.6850002 0,8.954 -3.049,16.457 -9.145,22.514 -6.437,6.324 -14.076,9.486 -22.912,9.486 -8.649,0 -16.153,-3.143 -22.514,-9.429 -6.285,-6.285 -9.429,-13.807 -9.429,-22.57 0,-8.723 3.144,-16.285 9.429,-22.6850002 6.209,-6.21099999 13.714,-9.316 22.514,-9.316 z m 0.114,5.772 c -7.276,0 -13.428,2.572 -18.457,7.715 -5.22,5.2960002 -7.829,11.4670002 -7.829,18.5130002 0,7.125 2.59,13.257 7.77,18.4 5.181,5.182 11.352,7.771 18.514,7.771 7.123,0 13.334,-2.609 18.629,-7.828 5.029,-4.876 7.543,-10.99 7.543,-18.343 0,-7.313 -2.553,-13.485 -7.656,-18.5130002 -5.067,-5.145 -11.239,-7.715 -18.514,-7.715 z m -14.286,21.7130002 c 0.609,-3.924 2.189,-6.962 4.742,-9.114 2.552,-2.152 5.656,-3.228 9.314,-3.228 5.027,0 9.029,1.62 12,4.856 2.971,3.238 4.457,7.391 4.457,12.457 0,4.915 -1.543,9 -4.627,12.256 -3.088,3.256 -7.086,4.886 -12.002,4.886 -3.619,0 -6.743,-1.085 -9.371,-3.257 -2.629,-2.172 -4.209,-5.257 -4.743,-9.257 h 8.059 c 0.19,3.886 2.533,5.829 7.029,5.829 2.246,0 4.057,-0.972 5.428,-2.914 1.373,-1.942 2.059,-4.534 2.059,-7.771 0,-3.391 -0.629,-5.971 -1.885,-7.743 -1.258,-1.771 -3.066,-2.657 -5.43,-2.657 -4.268,0 -6.667,1.885 -7.2,5.656 h 2.343 l -6.342,6.343 -6.343,-6.343 2.512,0.001 0,0 z"
   id="path9-0"
   style="fill:#c9c9c9;fill-opacity:1" /></svg>